<svg xmlns="http://www.w3.org/2000/svg" width="33" height="34" viewBox="0 0 33 34" fill="#4BF0A5">
  <path d="M22.9158 19.2315L22 18.412V11.2812C22 9.82256 21.4205 8.42361 20.3891 7.39216C19.3576 6.36071 17.9587 5.78125 16.5 5.78125C15.0413 5.78125 13.6424 6.36071 12.6109 7.39216C11.5795 8.42361 11 9.82256 11 11.2812V18.412L10.0843 19.2315C8.75538 20.4174 7.78232 21.9493 7.27376 23.6562H25.7263C25.2177 21.9493 24.2446 20.4174 22.9158 19.2315ZM20.625 26.4062C20.625 27.5003 20.1904 28.5495 19.4168 29.3231C18.6432 30.0967 17.594 30.5312 16.5 30.5312C15.406 30.5312 14.3568 30.0967 13.5832 29.3231C12.8096 28.5495 12.375 27.5003 12.375 26.4062H4.12501C4.12314 24.6649 4.48971 22.9428 5.20064 21.3531C5.91158 19.7635 6.95079 18.3422 8.25001 17.1827V11.2812C8.25001 9.09321 9.1192 6.99479 10.6664 5.44762C12.2136 3.90044 14.312 3.03125 16.5 3.03125C18.688 3.03125 20.7865 3.90044 22.3336 5.44762C23.8808 6.99479 24.75 9.09321 24.75 11.2812V17.1827C26.0492 18.3422 27.0884 19.7635 27.7994 21.3531C28.5103 22.9428 28.8769 24.6649 28.875 26.4062H20.625ZM16.5 27.7812C16.8647 27.7812 17.2144 27.6364 17.4723 27.3785C17.7301 27.1207 17.875 26.7709 17.875 26.4062H15.125C15.125 26.7709 15.2699 27.1207 15.5277 27.3785C15.7856 27.6364 16.1353 27.7812 16.5 27.7812Z"/>
</svg>