<svg xmlns="http://www.w3.org/2000/svg" width="33" height="34" viewBox="0 0 33 34" fill="#4BF0A5">
  <path d="M16.5 27.7812C19.4174 27.7812 22.2153 26.6223 24.2782 24.5594C26.3411 22.4965 27.5 19.6986 27.5 16.7812C27.5 13.8639 26.3411 11.066 24.2782 9.00308C22.2153 6.94018 19.4174 5.78125 16.5 5.78125C13.5826 5.78125 10.7847 6.94018 8.72183 9.00308C6.65893 11.066 5.5 13.8639 5.5 16.7812C5.5 19.6986 6.65893 22.4965 8.72183 24.5594C10.7847 26.6223 13.5826 27.7812 16.5 27.7812ZM16.5 30.5312C8.90588 30.5312 2.75 24.3754 2.75 16.7812C2.75 9.18713 8.90588 3.03125 16.5 3.03125C24.0941 3.03125 30.25 9.18713 30.25 16.7812C30.25 24.3754 24.0941 30.5312 16.5 30.5312ZM15.125 4.40625H17.875V18.1562H15.125V4.40625ZM15.125 15.4062H28.875V18.1562H15.125V15.4062Z"/>
</svg>