<svg xmlns="http://www.w3.org/2000/svg" width="28" height="28" viewBox="0 0 28 28" fill="none">
  <path d="M15.1181 14.0424L9.50023 8.42458C9.29349 8.21053 9.1791 7.92385 9.18168 7.62628C9.18427 7.3287 9.30363 7.04405 9.51405 6.83363C9.72447 6.62321 10.0091 6.50385 10.3067 6.50126C10.6043 6.49868 10.8909 6.61307 11.105 6.81981L17.5252 13.24C17.738 13.4529 17.8575 13.7415 17.8575 14.0424C17.8575 14.3434 17.738 14.632 17.5252 14.8448L11.105 21.265C10.8909 21.4718 10.6043 21.5861 10.3067 21.5836C10.0091 21.581 9.72447 21.4616 9.51405 21.2512C9.30363 21.0408 9.18427 20.7561 9.18168 20.4585C9.1791 20.161 9.29349 19.8743 9.50023 19.6602L15.1181 14.0424Z" fill="black"/>
</svg>