<svg xmlns="http://www.w3.org/2000/svg" width="50" height="51" viewBox="0 0 20 21" fill="none">

  <path d="M15 9.6136C14.8667 9.6136 14.7333 9.57193 14.6167 9.48026C11.8083 7.3136 8.18334 7.3136 5.38333 9.48026C5.10834 9.6886 4.71667 9.6386 4.50834 9.37193C4.30001 9.09693 4.35 8.70526 4.61667 8.49693C7.88334 5.97193 12.1083 5.97193 15.3833 8.49693C15.6583 8.70526 15.7083 9.09693 15.4917 9.37193C15.375 9.53026 15.1833 9.6136 15 9.6136Z" fill="#Fff"/>
  <path d="M13.6667 12.1886C13.5334 12.1886 13.4 12.1469 13.2834 12.0553C11.2834 10.5136 8.70835 10.5136 6.70835 12.0553C6.43335 12.2636 6.04168 12.2136 5.83335 11.9469C5.62502 11.6803 5.67502 11.2803 5.94168 11.0719C8.40002 9.17193 11.5834 9.17193 14.0417 11.0719C14.3167 11.2803 14.3667 11.6719 14.15 11.9469C14.0417 12.1053 13.8584 12.1886 13.6667 12.1886Z" fill="#Fff"/>
  <path d="M11.8333 14.7636C11.7 14.7636 11.5667 14.7219 11.45 14.6303C10.5667 13.9469 9.425 13.9469 8.54166 14.6303C8.26666 14.8386 7.87499 14.7886 7.66666 14.5219C7.45833 14.2469 7.50833 13.8553 7.775 13.6469C9.1 12.6219 10.8833 12.6219 12.2083 13.6469C12.4833 13.8553 12.5333 14.2469 12.3167 14.5219C12.2083 14.6803 12.025 14.7636 11.8333 14.7636Z" fill="#Fff"/>
</svg>