<svg xmlns="http://www.w3.org/2000/svg" width="20" height="24" viewBox="0 0 33 34" fill="#4BF0A5">
  <path d="M27.5 27.7813V12.8378L16.5 6.23782L5.5 12.8378V27.7813H11V24.0001C11 22.5414 11.5795 21.1424 12.6109 20.111C13.6424 19.0795 15.0413 18.5001 16.5 18.5001C17.9587 18.5001 19.3576 19.0795 20.3891 20.111C21.4205 21.1424 22 22.5414 22 24.0001V27.7813H27.5ZM19.25 30.5313V24.0001C19.25 23.2707 18.9603 22.5713 18.4445 22.0555C17.9288 21.5398 17.2293 21.2501 16.5 21.2501C15.7707 21.2501 15.0712 21.5398 14.5555 22.0555C14.0397 22.5713 13.75 23.2707 13.75 24.0001V30.5313H5.5C4.77065 30.5313 4.07118 30.2416 3.55546 29.7259C3.03973 29.2101 2.75 28.5107 2.75 27.7813V12.8378C2.75 12.3629 2.87297 11.8961 3.10694 11.4829C3.34091 11.0696 3.67791 10.724 4.08512 10.4797L15.0851 3.87969C15.5125 3.62325 16.0016 3.48779 16.5 3.48779C16.9984 3.48779 17.4875 3.62325 17.9149 3.87969L28.9149 10.4797C29.3221 10.724 29.6591 11.0696 29.8931 11.4829C30.127 11.8961 30.25 12.3629 30.25 12.8378V27.7813C30.25 28.5107 29.9603 29.2101 29.4445 29.7259C28.9288 30.2416 28.2293 30.5313 27.5 30.5313H19.25Z" />
</svg>