<svg xmlns="http://www.w3.org/2000/svg" width="53" height="53" viewBox="0 0 53 53" fill="none">
  <path d="M15.3785 30.8609V43.812H36.9637V30.8609H15.3785ZM36.9637 26.5439C38.1086 26.5439 39.2067 26.9987 40.0163 27.8083C40.8259 28.6179 41.2807 29.7159 41.2807 30.8609V43.812C41.2807 44.9569 40.8259 46.0549 40.0163 46.8645C39.2067 47.6741 38.1086 48.129 36.9637 48.129H15.3785C14.2336 48.129 13.1355 47.6741 12.326 46.8645C11.5164 46.0549 11.0615 44.9569 11.0615 43.812V30.8609C11.0615 29.7159 11.5164 28.6179 12.326 27.8083C13.1355 26.9987 14.2336 26.5439 15.3785 26.5439V15.7513C15.3785 12.8889 16.5156 10.1438 18.5396 8.11981C20.5636 6.09581 23.3087 4.95874 26.1711 4.95874C29.0335 4.95874 31.7786 6.09581 33.8026 8.11981C35.8266 10.1438 36.9637 12.8889 36.9637 15.7513V26.5439ZM32.6466 26.5439V15.7513C32.6466 14.9009 32.4791 14.0589 32.1537 13.2732C31.8283 12.4876 31.3513 11.7737 30.75 11.1724C30.1487 10.5711 29.4348 10.0941 28.6492 9.76868C27.8635 9.44326 27.0215 9.27576 26.1711 9.27576C25.3207 9.27576 24.4787 9.44326 23.693 9.76868C22.9074 10.0941 22.1935 10.5711 21.5922 11.1724C20.9909 11.7737 20.5139 12.4876 20.1885 13.2732C19.8631 14.0589 19.6956 14.9009 19.6956 15.7513V26.5439H32.6466ZM26.1711 41.6534C25.0262 41.6534 23.9281 41.1986 23.1185 40.389C22.3089 39.5794 21.8541 38.4814 21.8541 37.3364C21.8541 36.1915 22.3089 35.0934 23.1185 34.2838C23.9281 33.4742 25.0262 33.0194 26.1711 33.0194C27.3161 33.0194 28.4141 33.4742 29.2237 34.2838C30.0333 35.0934 30.4881 36.1915 30.4881 37.3364C30.4881 38.4814 30.0333 39.5794 29.2237 40.389C28.4141 41.1986 27.3161 41.6534 26.1711 41.6534Z" fill="white"/>
</svg>