<svg xmlns="http://www.w3.org/2000/svg" width="33" height="34" viewBox="0 0 33 34" fill="#4BF0A5">
  <path d="M11.7343 16.8775C11.9033 16.8054 12.0851 16.7679 12.2689 16.7672C12.4527 16.7665 12.6347 16.8027 12.8043 16.8736C12.9739 16.9445 13.1275 17.0487 13.2561 17.18C13.3847 17.3113 13.4857 17.4671 13.5531 17.6381C13.6205 17.8091 13.6529 17.9918 13.6485 18.1756C13.644 18.3593 13.6027 18.5403 13.5271 18.7078C13.4515 18.8753 13.3431 19.026 13.2083 19.1509C13.0734 19.2758 12.9149 19.3724 12.7421 19.435C11.823 19.7971 11.0341 20.4275 10.4782 21.2442C9.92225 22.0608 9.62496 23.0258 9.625 24.0138V26.4062C9.625 26.7709 9.76987 27.1207 10.0277 27.3785C10.2856 27.6364 10.6353 27.7812 11 27.7812H22C22.3647 27.7812 22.7144 27.6364 22.9723 27.3785C23.2301 27.1207 23.375 26.7709 23.375 26.4062V24.1416C23.3752 23.122 23.0654 22.1265 22.4869 21.2869C21.9084 20.4473 21.0883 19.8034 20.1355 19.4405C19.9616 19.3802 19.8016 19.2855 19.665 19.1622C19.5284 19.0389 19.4179 18.8894 19.3401 18.7226C19.2623 18.5558 19.2188 18.375 19.2122 18.1911C19.2055 18.0072 19.2359 17.8238 19.3015 17.6518C19.367 17.4798 19.4664 17.3227 19.5938 17.1899C19.7212 17.057 19.8739 16.9511 20.043 16.8784C20.2121 16.8056 20.3941 16.7676 20.5781 16.7665C20.7622 16.7654 20.9446 16.8013 21.1145 16.872C22.588 17.4332 23.8561 18.429 24.7509 19.7272C25.6457 21.0254 26.1249 22.5649 26.125 24.1416V26.4062C26.125 27.5003 25.6904 28.5495 24.9168 29.3231C24.1432 30.0967 23.094 30.5312 22 30.5312H11C9.90598 30.5312 8.85677 30.0967 8.08318 29.3231C7.3096 28.5495 6.875 27.5003 6.875 26.4062V24.0138C6.87519 22.474 7.33876 20.9699 8.2054 19.6971C9.07204 18.4244 10.3016 17.4419 11.7343 16.8775ZM16.5 3.03125C17.9587 3.03125 19.3576 3.61071 20.3891 4.64216C21.4205 5.67361 22 7.07256 22 8.53125V11.2812C22 12.7399 21.4205 14.1389 20.3891 15.1703C19.3576 16.2018 17.9587 16.7812 16.5 16.7812C15.0413 16.7812 13.6424 16.2018 12.6109 15.1703C11.5795 14.1389 11 12.7399 11 11.2812V8.53125C11 7.07256 11.5795 5.67361 12.6109 4.64216C13.6424 3.61071 15.0413 3.03125 16.5 3.03125V3.03125ZM16.5 5.78125C15.7707 5.78125 15.0712 6.07098 14.5555 6.58671C14.0397 7.10243 13.75 7.8019 13.75 8.53125V11.2812C13.75 12.0106 14.0397 12.7101 14.5555 13.2258C15.0712 13.7415 15.7707 14.0312 16.5 14.0312C17.2293 14.0312 17.9288 13.7415 18.4445 13.2258C18.9603 12.7101 19.25 12.0106 19.25 11.2812V8.53125C19.25 7.8019 18.9603 7.10243 18.4445 6.58671C17.9288 6.07098 17.2293 5.78125 16.5 5.78125Z"/>
</svg>