<svg xmlns="http://www.w3.org/2000/svg" width="51" height="51" viewBox="0 0 21 21" fill="none">
<path  d="M6.27504 17.1053C6.95837 16.3719 8.00004 16.4303 8.60004 17.2303L9.44171 18.3553C10.1167 19.2469 11.2084 19.2469 11.8834 18.3553L12.725 17.2303C13.325 16.4303 14.3667 16.3719 15.05 17.1053C16.5334 18.6886 17.7417 18.1636 17.7417 15.9469V6.55526C17.75 3.19693 16.9667 2.35526 13.8167 2.35526H7.51671C4.36671 2.35526 3.58337 3.19693 3.58337 6.55526V15.9386C3.58337 18.1636 4.80004 18.6803 6.27504 17.1053Z" fill="#fff"/>
  <path d="M14.1917 10.4803H9.60834C9.26667 10.4803 8.98334 10.1969 8.98334 9.85526C8.98334 9.5136 9.26667 9.23026 9.60834 9.23026H14.1917C14.5333 9.23026 14.8167 9.5136 14.8167 9.85526C14.8167 10.1969 14.5333 10.4803 14.1917 10.4803Z" fill="#000"/>
  <path d="M14.1917 7.14693H9.60834C9.26667 7.14693 8.98334 6.8636 8.98334 6.52193C8.98334 6.18027 9.26667 5.89693 9.60834 5.89693H14.1917C14.5333 5.89693 14.8167 6.18027 14.8167 6.52193C14.8167 6.8636 14.5333 7.14693 14.1917 7.14693Z" fill="#000"/>
  <path d="M7.15004 7.35527C6.69171 7.35527 6.31671 6.98027 6.31671 6.52193C6.31671 6.0636 6.69171 5.6886 7.15004 5.6886C7.60838 5.6886 7.98338 6.0636 7.98338 6.52193C7.98338 6.98027 7.60838 7.35527 7.15004 7.35527Z" fill="#000"/>
  <path d="M7.15004 10.6886C6.69171 10.6886 6.31671 10.3136 6.31671 9.85527C6.31671 9.39693 6.69171 9.02193 7.15004 9.02193C7.60838 9.02193 7.98338 9.39693 7.98338 9.85527C7.98338 10.3136 7.60838 10.6886 7.15004 10.6886Z" fill="#000"/>
</svg>