<svg xmlns="http://www.w3.org/2000/svg" width="26" height="26" viewBox="0 0 26 26" fill="none">
  <path d="M20.2169 6.98081L12.1083 15.0894C12.3488 15.4337 12.5532 15.8055 12.7174 16.1995L14.7406 21.071L20.2169 6.97975V6.98081ZM10.6815 13.6626L18.7912 5.55293L4.6999 11.0293L9.57142 13.0535C9.96244 13.2157 10.3347 13.4199 10.6815 13.6626ZM22.9879 5.33473L16.6038 21.7595C16.2013 22.7976 15.0393 23.3304 14.0097 22.9501C13.7589 22.8575 13.53 22.7139 13.3373 22.5285C13.1446 22.3431 12.9924 22.1199 12.8901 21.8729L10.8669 17.0014C10.4732 16.052 9.71891 15.2977 8.76956 14.904L3.89699 12.8809C2.88646 12.4603 2.42462 11.292 2.86739 10.2687C2.97596 10.0187 3.13294 9.79265 3.32928 9.60358C3.52562 9.41451 3.75745 9.26617 4.01139 9.16711L20.4362 2.78086C20.7931 2.63704 21.1844 2.60135 21.5614 2.67823C21.9384 2.75511 22.2845 2.94117 22.5566 3.21325C22.8287 3.48533 23.0148 3.83142 23.0916 4.20845C23.1685 4.58547 23.1328 4.97678 22.989 5.33367L22.9879 5.33473Z" fill="black"/>
</svg>